<svg width="17" height="16" viewBox="0 0 17 16" fill="none" xmlns="http://www.w3.org/2000/svg">
<path d="M4.7525 2.5437V13.615C4.7525 14.605 6.43 15.4075 8.5 15.4075C10.57 15.4075 12.2475 14.605 12.2475 13.615V2.5437H4.7525Z" fill="#8DCC47"/>
<path d="M12.25 2.54497C12.25 3.72497 10.2762 4.46622 8.50249 4.46622C6.77499 4.46622 4.87499 3.72122 4.75499 2.54497C4.62624 1.27747 6.43249 0.407471 8.50249 0.407471C10.5725 0.407471 12.25 1.36497 12.25 2.54497Z" fill="#9EE350"/>
<path d="M8.52501 3.62251C10.157 3.62251 11.48 2.98284 11.48 2.19376C11.48 1.40469 10.157 0.765015 8.52501 0.765015C6.89301 0.765015 5.57001 1.40469 5.57001 2.19376C5.57001 2.98284 6.89301 3.62251 8.52501 3.62251Z" fill="#D9D9D9"/>
<path d="M10.07 0.805054V0.887554C10.0738 0.836304 10.07 0.805054 10.07 0.805054Z" fill="#9E9E9E"/>
<path d="M10.1237 6.44254C10.1237 6.36004 10.0925 6.31004 10.0162 6.28004C9.94499 6.25129 9.84124 6.28129 9.73499 6.30879C9.52499 6.36129 9.30875 6.39129 9.11375 6.38879C9.035 6.38754 9.04249 6.31254 9.04249 6.24379V5.55879C9.04249 5.48379 9.03375 5.38879 8.895 5.38879C8.81125 5.38879 8.71 5.41129 8.49875 5.41379C8.2875 5.41254 8.18625 5.38879 8.1025 5.38879C7.96375 5.38879 7.955 5.48379 7.955 5.55879V6.24379C7.955 6.31254 7.9625 6.38754 7.88375 6.38879C7.68875 6.39129 7.4725 6.36129 7.2625 6.30879C7.155 6.28254 7.0525 6.25254 6.98125 6.28004C6.905 6.31129 6.87375 6.36004 6.87375 6.44254L6.87 7.07879C6.905 7.17754 6.94125 7.24879 6.98125 7.27004C7.09875 7.33129 7.355 7.42504 7.765 7.44504C7.84625 7.44879 7.9375 7.42129 7.95625 7.51004C7.965 7.55379 7.95625 8.09379 7.95625 8.31254C7.95625 8.51129 8.24375 8.53254 8.39875 8.54504C8.4325 8.54754 8.5675 8.54754 8.6 8.54504C8.75375 8.53129 9.04249 8.51129 9.04249 8.31254C9.04249 8.09379 9.03374 7.55379 9.04249 7.51004C9.06124 7.42129 9.15125 7.44879 9.23375 7.44504C9.64375 7.42504 9.9 7.33004 10.0175 7.27004C10.0562 7.25004 10.0937 7.17879 10.1287 7.07879L10.1237 6.44254ZM9.88375 12.82C9.88375 12.82 9.4025 12.9663 8.5 12.9663C7.5975 12.9663 7.11625 12.82 7.11625 12.82C6.945 12.795 6.8725 12.9288 6.8725 13.0638V13.5913C6.8725 13.7163 6.95375 13.8325 7.09875 13.9038C7.3975 14.0513 7.88 14.1513 8.4575 14.145C8.4725 14.145 8.48625 14.1438 8.50125 14.1438C8.51625 14.1438 8.53 14.145 8.545 14.145C9.12375 14.1513 9.605 14.0513 9.90375 13.9038C10.0487 13.8325 10.13 13.7163 10.13 13.5913V13.0638C10.1287 12.9288 10.055 12.795 9.88375 12.82Z" fill="white"/>
<path d="M7.82376 3.47627C8.02376 3.28377 7.30376 3.11752 6.96376 3.00127C6.53626 2.85502 6.08876 2.59752 5.95251 2.09377C5.85001 1.71377 5.67126 1.83252 5.63876 1.87752C5.59251 1.94127 5.41376 2.31377 5.75751 2.72752C5.99376 3.01252 6.37626 3.22877 6.70251 3.33877C7.14876 3.49002 7.69126 3.60377 7.82376 3.47627ZM7.50001 1.64752C7.54126 1.50752 7.90376 1.42127 8.12376 1.41877C8.50001 1.41377 8.88751 1.70252 8.94501 1.80127C9.10626 2.07627 8.73876 2.17377 8.09626 2.11752C7.66376 2.08002 7.45876 1.78877 7.50001 1.64752Z" fill="#F5F5F5"/>
<path d="M9.63874 1.87629C9.59499 1.79879 9.54999 1.71754 9.50749 1.63879C9.46249 1.55754 9.46374 1.64504 9.45374 1.67879C9.40249 1.85629 9.30124 1.93504 9.22999 1.97379C9.01499 2.08879 8.75749 2.14379 8.50124 2.14004C8.24374 2.14254 7.98749 2.08879 7.77249 1.97379C7.69999 1.93504 7.59999 1.85629 7.54874 1.67879C7.53874 1.64379 7.53999 1.55754 7.49499 1.63879C7.45124 1.71754 7.40749 1.79879 7.36374 1.87629C7.25124 2.07379 7.34874 2.29254 7.49249 2.43254C7.74374 2.67629 8.13374 2.78879 8.50249 2.78879C8.87124 2.78879 9.26124 2.67629 9.51249 2.43254C9.65499 2.29129 9.75124 2.07254 9.63874 1.87629Z" fill="#9E9E9E"/>
</svg>
