<svg width="16" height="16" viewBox="0 0 16 16" fill="none" xmlns="http://www.w3.org/2000/svg">
<path d="M3.51245 6.50007C3.51161 5.90731 3.62806 5.32024 3.85509 4.77267C4.08211 4.2251 4.41523 3.72786 4.83525 3.30959C5.25526 2.89131 5.75388 2.56027 6.30239 2.33552C6.85089 2.11078 7.43844 1.99677 8.0312 2.00007C10.5062 2.01882 12.4874 4.07507 12.4874 6.55632V7.00007C12.4874 9.23757 12.9562 10.5376 13.3687 11.2501C13.4125 11.3259 13.4356 11.412 13.4357 11.4996C13.4358 11.5872 13.4128 11.6734 13.3691 11.7493C13.3255 11.8253 13.2626 11.8884 13.1868 11.9324C13.1111 11.9764 13.0251 11.9998 12.9374 12.0001H3.06245C2.97483 11.9998 2.88883 11.9764 2.81307 11.9324C2.7373 11.8884 2.67443 11.8253 2.63076 11.7493C2.58708 11.6734 2.56413 11.5872 2.56421 11.4996C2.56429 11.412 2.58739 11.3259 2.6312 11.2501C3.0437 10.5376 3.51245 9.23757 3.51245 7.00007V6.50007Z" stroke="white" stroke-width="1.5" stroke-linecap="round" stroke-linejoin="round"/>
<path d="M6 12V12.5C6 13.0304 6.21071 13.5391 6.58579 13.9142C6.96086 14.2893 7.46957 14.5 8 14.5C8.53043 14.5 9.03914 14.2893 9.41421 13.9142C9.78929 13.5391 10 13.0304 10 12.5V12" stroke="white" stroke-width="1.5" stroke-linecap="round" stroke-linejoin="round"/>
</svg>
