<svg width="25" height="24" viewBox="0 0 25 24" fill="none" xmlns="http://www.w3.org/2000/svg">
<path d="M11.96 13.73C13.5119 13.73 14.77 12.4719 14.77 10.92C14.77 9.36806 13.5119 8.10999 11.96 8.10999C10.4081 8.10999 9.15001 9.36806 9.15001 10.92C9.15001 12.4719 10.4081 13.73 11.96 13.73Z" stroke="white" stroke-width="1.5" stroke-linecap="round" stroke-linejoin="round"/>
<path d="M17.15 20.2C17.15 17.87 14.83 15.97 11.96 15.97C9.09 15.97 6.77 17.86 6.77 20.2" stroke="white" stroke-width="1.5" stroke-linecap="round" stroke-linejoin="round"/>
<path d="M21.5 12.5C21.5 17.75 17.25 22 12 22C6.75 22 2.5 17.75 2.5 12.5C2.5 7.25 6.75 3 12 3C13.31 3 14.56 3.25999 15.7 3.73999C15.57 4.13999 15.5 4.56 15.5 5C15.5 5.75 15.71 6.46 16.08 7.06C16.28 7.4 16.54 7.70997 16.84 7.96997C17.54 8.60997 18.47 9 19.5 9C19.94 9 20.36 8.92998 20.75 8.78998C21.23 9.92998 21.5 11.19 21.5 12.5Z" stroke="white" stroke-width="1.5" stroke-linecap="round" stroke-linejoin="round"/>
<path d="M23.5 5C23.5 5.32 23.46 5.62999 23.38 5.92999C23.29 6.32999 23.13 6.72 22.92 7.06C22.44 7.87 21.67 8.49998 20.75 8.78998C20.36 8.92998 19.94 9 19.5 9C18.47 9 17.54 8.60997 16.84 7.96997C16.54 7.70997 16.28 7.4 16.08 7.06C15.71 6.46 15.5 5.75 15.5 5C15.5 4.56 15.57 4.13999 15.7 3.73999C15.89 3.15999 16.21 2.64002 16.63 2.21002C17.36 1.46002 18.38 1 19.5 1C20.68 1 21.75 1.51002 22.47 2.33002C23.11 3.04002 23.5 3.98 23.5 5Z" stroke="white" stroke-width="1.5" stroke-miterlimit="10" stroke-linecap="round" stroke-linejoin="round"/>
<path d="M20.99 4.97998H18.01" stroke="white" stroke-width="1.5" stroke-miterlimit="10" stroke-linecap="round" stroke-linejoin="round"/>
<path d="M19.5 3.52002V6.51001" stroke="white" stroke-width="1.5" stroke-miterlimit="10" stroke-linecap="round" stroke-linejoin="round"/>
</svg>
