<svg width="211" height="141" viewBox="0 0 211 141" fill="none" xmlns="http://www.w3.org/2000/svg">
<g clip-path="url(#clip0_32_321)">
<path d="M105.5 129.859C133.618 129.859 156.413 124.924 156.413 118.837C156.413 112.75 133.618 107.815 105.5 107.815C77.3816 107.815 54.5872 112.75 54.5872 118.837C54.5872 124.924 77.3816 129.859 105.5 129.859Z" fill="url(#paint0_radial_32_321)"/>
<path d="M122.892 71.9798C122.563 72.026 122.232 72.0495 121.908 72.0495C120.827 72.0495 119.813 71.7962 118.895 71.2968L118.209 72.5589L121.483 74.34C122.614 74.9552 123.859 75.2672 125.183 75.2672C125.573 75.2672 125.971 75.239 126.366 75.1834L136.825 73.7136L131.432 70.7795L122.892 71.9798Z" fill="url(#paint1_linear_32_321)"/>
<path d="M168.687 40.1537L168.682 40.0419C168.678 39.9444 168.672 39.8477 168.665 39.7555C168.665 39.7555 168.66 39.6776 168.657 39.649C168.646 39.5228 168.634 39.3975 168.618 39.2709L168.611 39.2208C168.597 39.1136 168.582 39.0073 168.565 38.9004L168.546 38.7917C168.53 38.6967 168.512 38.6025 168.492 38.508L168.475 38.4236C168.449 38.3047 168.422 38.1869 168.393 38.0721L168.372 37.9948C168.347 37.9016 168.321 37.809 168.294 37.7177L168.262 37.6134C168.232 37.5189 168.202 37.4255 168.169 37.3317L168.155 37.2886L168.145 37.2619C168.092 37.1148 168.034 36.9668 167.969 36.8104L167.946 36.7551C167.885 36.6132 167.817 36.4665 167.749 36.3304C167.742 36.3161 167.736 36.3017 167.727 36.2842C167.72 36.2701 167.713 36.2563 167.71 36.2524C167.654 36.1421 167.597 36.0334 167.536 35.9256L167.506 35.8751C167.453 35.7824 167.398 35.6913 167.341 35.5992L167.313 35.5534L167.291 35.5202C167.241 35.4432 167.191 35.3672 167.139 35.2923L167.108 35.2464C167.047 35.1597 166.985 35.0748 166.92 34.9894L166.908 34.9729L166.853 34.9042C166.81 34.8492 166.767 34.7946 166.724 34.7426C166.699 34.7126 166.674 34.6832 166.649 34.654C166.607 34.6034 166.563 34.5536 166.511 34.495C166.499 34.4812 166.487 34.4677 166.475 34.4545L166.442 34.4188C166.4 34.3736 166.358 34.3288 166.316 34.2858C166.316 34.2858 166.26 34.2269 166.236 34.2032C166.187 34.1544 166.138 34.1064 166.089 34.0595L166.078 34.0486C166.063 34.0343 166.049 34.0199 166.025 33.9983C165.962 33.9389 165.897 33.8804 165.831 33.8231L165.81 33.8043C165.737 33.7413 165.663 33.6802 165.597 33.6267L165.51 33.5583C165.461 33.5201 165.412 33.482 165.362 33.4451C165.34 33.4286 165.271 33.3792 165.271 33.3792C165.223 33.345 165.176 33.311 165.13 33.2795L165.098 33.2572C165.081 33.246 165.029 33.212 165.029 33.212C164.982 33.1812 164.936 33.1508 164.888 33.1206C164.854 33.0989 164.819 33.0775 164.782 33.0551C164.735 33.0265 164.687 32.9982 164.632 32.9662C164.618 32.9574 164.604 32.9488 164.587 32.9395C164.548 32.9169 164.507 32.8945 164.465 32.8715L161.191 31.0903L160.504 32.3521C160.546 32.3748 160.587 32.3985 160.628 32.4222C160.628 32.4222 160.723 32.4782 160.761 32.501L160.847 32.5539C160.885 32.5782 160.923 32.6033 160.959 32.6269L161.041 32.6816C161.08 32.7085 161.118 32.736 161.156 32.7631L161.231 32.8172C161.269 32.8455 161.307 32.875 161.352 32.91L161.416 32.96C161.47 33.0031 161.523 33.0468 161.575 33.0917L161.608 33.1251L161.631 33.1403C161.678 33.1815 161.724 33.224 161.772 33.2687L161.822 33.317C161.862 33.3556 161.903 33.3941 161.945 33.4371L162.006 33.5C162.041 33.5368 162.076 33.5737 162.11 33.6102L162.174 33.6807C162.21 33.7207 162.245 33.7613 162.282 33.8053C162.302 33.8281 162.321 33.8511 162.342 33.8758C162.377 33.9193 162.413 33.9636 162.448 34.0088L162.499 34.0732C162.553 34.1439 162.605 34.2157 162.664 34.2994L162.682 34.3266C162.725 34.3888 162.767 34.4514 162.807 34.5146L162.85 34.583C162.897 34.6572 162.942 34.7323 162.985 34.8067L163.011 34.8517C163.061 34.94 163.109 35.0301 163.155 35.1227L163.183 35.1779C163.246 35.3045 163.301 35.4233 163.352 35.5426L163.37 35.5867C163.427 35.7225 163.477 35.8495 163.523 35.9785L163.539 36.0255C163.566 36.1032 163.592 36.1819 163.616 36.2592L163.643 36.3474C163.666 36.4247 163.688 36.5027 163.709 36.583L163.726 36.6452C163.751 36.7439 163.775 36.8437 163.797 36.9464L163.811 37.0178C163.828 37.0968 163.843 37.1764 163.857 37.2579L163.873 37.351C163.887 37.4408 163.9 37.531 163.913 37.6288L163.919 37.6687C163.932 37.7746 163.942 37.8815 163.951 37.9878L163.958 38.0786C163.964 38.161 163.969 38.2442 163.973 38.3293L163.977 38.4241C163.981 38.535 163.984 38.6466 163.984 38.7594L163.948 57.8642C163.948 57.9919 163.944 58.1192 163.938 58.2466L163.933 58.3458C163.927 58.4614 163.919 58.5766 163.908 58.6964L163.906 58.728C163.895 58.8458 163.88 58.9632 163.864 59.0804C163.849 59.1985 163.83 59.3162 163.81 59.4332L163.791 59.5449C163.764 59.6954 163.731 59.8497 163.695 60.0031C163.67 60.11 163.643 60.216 163.614 60.3206L163.595 60.3966C163.558 60.5286 163.518 60.6596 163.476 60.7891L163.454 60.853C163.42 60.9553 163.385 61.057 163.348 61.1584L163.301 61.2802C163.269 61.364 163.236 61.4477 163.201 61.5322L163.155 61.6428C163.115 61.7345 163.075 61.8255 163.034 61.9139L162.997 61.9942C162.943 62.1072 162.888 62.2189 162.83 62.3296L162.787 62.4101C162.75 62.4807 162.711 62.5508 162.671 62.6205C162.578 62.7863 162.493 62.9307 162.41 63.0621L162.4 63.0779C162.317 63.2097 162.224 63.3476 162.108 63.5126C162.087 63.5418 162.024 63.629 162.024 63.629C161.941 63.7428 161.853 63.858 161.764 63.9697L161.695 64.0575C161.585 64.1924 161.469 64.3286 161.347 64.462C161.28 64.5365 161.212 64.6097 161.141 64.684L161.109 64.718C161.023 64.8065 160.935 64.8927 160.845 64.9785L160.755 65.0619C160.692 65.1204 160.628 65.1785 160.564 65.2351C160.529 65.2658 160.494 65.2961 160.458 65.3264C160.399 65.377 160.339 65.4261 160.282 65.4734C160.236 65.5102 160.191 65.5466 160.143 65.5838C160.086 65.6291 160.027 65.6732 159.969 65.7164L159.95 65.7304C159.911 65.76 159.871 65.7896 159.829 65.8194C159.791 65.8464 159.753 65.8727 159.715 65.899L159.685 65.9196C159.607 65.973 159.529 66.0253 159.448 66.0767C159.401 66.1073 159.353 66.1375 159.304 66.1675C159.224 66.2169 159.142 66.2643 159.061 66.3107L159.02 66.3344C158.983 66.3554 158.947 66.3762 158.91 66.3964C158.867 66.4198 158.824 66.4422 158.78 66.4649L158.764 66.4734C158.699 66.5071 158.634 66.5404 158.568 66.5723C158.519 66.5965 158.469 66.6197 158.419 66.643C158.353 66.6735 158.287 66.7029 158.219 66.7322C158.168 66.7539 158.118 66.775 158.067 66.7957C158 66.8232 157.932 66.8494 157.864 66.875C157.813 66.8941 157.762 66.9131 157.711 66.9312C157.642 66.9557 157.571 66.9785 157.501 67.0012L157.46 67.0145C157.423 67.0263 157.386 67.0384 157.351 67.0487C157.277 67.0707 157.203 67.0908 157.129 67.1105L157.07 67.1261C157.042 67.134 157.013 67.1418 156.984 67.1488C156.902 67.1691 156.819 67.1865 156.735 67.2043C156.735 67.2043 156.633 67.2267 156.614 67.2307C156.482 67.2561 156.359 67.2767 156.239 67.2936L147.632 68.5033L141.162 77.4537C141.12 77.5123 141.07 77.5742 141.008 77.6472L140.975 77.6855C140.921 77.7456 140.866 77.8023 140.813 77.8524L140.772 77.8896C140.728 77.9294 140.683 77.9672 140.637 78.0036C140.615 78.0217 140.592 78.0392 140.568 78.0569C140.519 78.0932 140.462 78.1346 140.412 78.1662L140.39 78.1794C140.34 78.2103 140.288 78.237 140.236 78.2642C140.209 78.278 140.182 78.2919 140.156 78.3044C140.114 78.3239 140.072 78.3412 140.031 78.3574C140.031 78.3574 139.966 78.3838 139.953 78.3887C139.907 78.4048 139.861 78.4179 139.817 78.4304L139.751 78.4502C139.677 78.4681 139.611 78.4812 139.549 78.49C139.462 78.5022 139.375 78.5084 139.289 78.5084C139.008 78.5084 138.747 78.444 138.513 78.3169L138.17 78.9478L137.827 79.5787L141.101 81.3599C141.542 81.5994 142.047 81.7261 142.564 81.7261C142.716 81.7261 142.871 81.7152 143.024 81.6936C143.134 81.6783 143.247 81.6561 143.369 81.6261C143.4 81.6184 143.431 81.6092 143.462 81.5997L143.479 81.5947C143.555 81.5733 143.631 81.5506 143.708 81.5233C143.744 81.5106 143.78 81.4964 143.815 81.4822L143.837 81.4731C143.905 81.4461 143.972 81.4178 144.04 81.3861C144.085 81.3651 144.128 81.3428 144.169 81.3214L144.185 81.3141C144.215 81.2996 144.245 81.2848 144.275 81.268C144.32 81.2426 144.366 81.2157 144.41 81.188L144.438 81.1716C144.499 81.1332 144.56 81.0933 144.622 81.0493C144.644 81.0338 144.666 81.017 144.698 80.9919C144.734 80.9652 144.769 80.9383 144.815 80.902C144.837 80.8859 144.859 80.8695 144.883 80.8492C144.918 80.8195 144.953 80.7879 144.988 80.7563L145.021 80.726C145.036 80.713 145.087 80.6674 145.098 80.6566C145.163 80.5942 145.226 80.5293 145.286 80.4635C145.298 80.4502 145.31 80.4362 145.322 80.422C145.335 80.4072 145.384 80.3503 145.384 80.3503C145.409 80.3224 145.433 80.2943 145.457 80.2647C145.506 80.2039 145.554 80.1413 145.602 80.0759L151.712 71.6221L159.714 70.4974C159.857 70.4772 160.003 70.4528 160.16 70.4227C160.194 70.4161 160.228 70.4087 160.261 70.4012L160.306 70.3913C160.405 70.3706 160.503 70.3496 160.602 70.3255C160.644 70.3151 160.686 70.3038 160.728 70.2923L160.772 70.2802C160.86 70.2568 160.949 70.2331 161.035 70.2071C161.083 70.1927 161.131 70.1775 161.178 70.1621L161.214 70.1505C161.297 70.1238 161.38 70.0968 161.463 70.0675C161.516 70.0489 161.568 70.0295 161.62 70.0102L161.645 70.0011C161.725 69.9709 161.804 69.9402 161.883 69.9082C161.943 69.8836 162.003 69.8585 162.062 69.833C162.141 69.7993 162.218 69.7644 162.295 69.7287C162.354 69.7016 162.413 69.674 162.471 69.6457C162.549 69.6079 162.626 69.5688 162.702 69.5289L162.722 69.519C162.771 69.493 162.821 69.467 162.872 69.4394C162.872 69.4394 162.922 69.4136 162.939 69.4039C162.966 69.3891 162.992 69.3735 163.018 69.3577L163.047 69.3403C163.143 69.2858 163.238 69.2303 163.33 69.1735C163.387 69.1387 163.443 69.1034 163.499 69.0675C163.591 69.0086 163.682 68.9477 163.771 68.8862L163.799 68.8675C163.825 68.8513 163.85 68.8346 163.876 68.8165C163.891 68.8053 163.941 68.7685 163.941 68.7685C163.995 68.7298 164.048 68.6902 164.1 68.6513C164.169 68.6005 164.236 68.5496 164.304 68.4966C164.357 68.4554 164.409 68.4133 164.46 68.3716L164.493 68.3458C164.517 68.3262 164.542 68.3067 164.567 68.2861C164.589 68.2676 164.667 68.1999 164.667 68.1999C164.707 68.1652 164.748 68.1301 164.787 68.0959C164.861 68.0306 164.934 67.9639 165.006 67.8971L165.147 67.7658C165.237 67.6793 165.326 67.5911 165.417 67.4968L165.451 67.4616C165.519 67.3903 165.588 67.3186 165.654 67.2458C165.666 67.2323 165.678 67.2184 165.686 67.2084C165.823 67.0578 165.955 66.9043 166.078 66.7535C166.088 66.7413 166.099 66.7294 166.106 66.7202C166.122 66.7002 166.138 66.6798 166.153 66.6591L166.162 66.6472C166.261 66.5218 166.362 66.3903 166.459 66.2569L166.471 66.2416C166.486 66.2221 166.501 66.2026 166.517 66.1804C166.529 66.1632 166.541 66.1457 166.556 66.1231C166.686 65.9382 166.792 65.7807 166.881 65.6393C166.881 65.6393 166.901 65.6094 166.906 65.6005C166.999 65.4521 167.095 65.2902 167.202 65.0997C167.214 65.0798 167.226 65.0598 167.236 65.0413C167.261 64.9967 167.285 64.952 167.308 64.9071L167.379 64.7736C167.44 64.6568 167.499 64.5392 167.558 64.4155L167.61 64.3017C167.658 64.1989 167.704 64.0954 167.749 63.9916C167.767 63.9492 167.851 63.7481 167.851 63.7481C167.866 63.7101 167.881 63.6719 167.895 63.6337C167.895 63.6337 167.956 63.4744 167.97 63.4361C168.012 63.3213 168.053 63.2056 168.092 63.0874L168.122 63.0015C168.168 62.8573 168.212 62.7119 168.253 62.5646C168.259 62.5441 168.276 62.4761 168.276 62.4761C168.306 62.3627 168.337 62.2489 168.366 62.1241L168.37 62.1052C168.41 61.9346 168.447 61.7603 168.479 61.5869C168.484 61.557 168.489 61.5272 168.494 61.4973L168.5 61.4594C168.523 61.3242 168.544 61.1884 168.563 61.0502C168.566 61.0311 168.569 61.0119 168.572 60.9929C168.587 60.878 168.599 60.7629 168.61 60.6467L168.614 60.6045C168.626 60.472 168.635 60.3388 168.642 60.2034L168.648 60.091C168.654 59.9438 168.659 59.7961 168.659 59.6489L168.695 40.5434C168.695 40.412 168.692 40.2828 168.687 40.1537Z" fill="url(#paint2_linear_32_321)"/>
<path d="M139.289 79.9443C138.41 79.9443 137.606 79.5886 137.024 78.9429L131.019 72.2883L123.092 73.4024C122.696 73.458 122.298 73.4861 121.908 73.4861C119.834 73.4861 117.896 72.689 116.451 71.2418C114.852 69.6395 113.974 67.3827 113.978 64.8868L114.014 45.7821C114.024 40.4924 118.037 35.6261 122.961 34.9339L156.308 30.2473C156.703 30.1917 157.101 30.1636 157.492 30.1636C159.566 30.1636 161.503 30.9604 162.948 32.4075C164.547 34.0094 165.425 36.2661 165.42 38.7618L165.385 57.8666C165.375 63.1569 161.362 68.0238 156.439 68.7156L148.437 69.8403L142.327 78.2939C141.685 79.1821 140.745 79.7718 139.749 79.9118C139.596 79.9335 139.441 79.9443 139.289 79.9443Z" fill="url(#paint3_linear_32_321)"/>
<path d="M156.408 30.9583L123.061 35.6451C118.47 36.2902 114.741 40.8286 114.732 45.7831L114.697 64.888C114.688 69.8425 118.402 73.3362 122.992 72.6911L131.297 71.5239L137.557 78.4617C138.108 79.0728 138.878 79.3088 139.649 79.2005C140.42 79.0922 141.191 78.6395 141.745 77.8731L148.034 69.1715L156.339 68.0043C160.929 67.3591 164.657 62.8196 164.666 57.8651L164.702 38.7602C164.711 33.8059 160.998 30.3133 156.408 30.9583Z" fill="url(#paint4_linear_32_321)"/>
<path opacity="0.2" d="M163.984 38.7596L163.96 51.9357L115.43 57.0527L115.45 45.7844C115.459 41.1817 118.918 36.9525 123.16 36.3563L156.508 31.6702C156.837 31.6228 157.169 31.5999 157.492 31.5999C159.182 31.5999 160.759 32.2477 161.931 33.4228C163.258 34.7517 163.987 36.6479 163.984 38.7596Z" fill="url(#paint5_linear_32_321)"/>
<path d="M140.208 52.3145C140.307 52.3004 140.407 52.2836 140.505 52.2645C140.538 52.2582 140.57 52.2504 140.602 52.2435C140.668 52.2298 140.734 52.2158 140.799 52.1997C140.838 52.1902 140.875 52.1795 140.914 52.1693C140.972 52.1536 141.031 52.138 141.089 52.1206C141.129 52.1085 141.169 52.0953 141.21 52.0824C141.265 52.0646 141.32 52.0466 141.375 52.0273C141.416 52.013 141.456 51.9978 141.497 51.9825C141.55 51.9624 141.604 51.9417 141.657 51.9202C141.697 51.9038 141.737 51.8869 141.777 51.8696C141.83 51.8471 141.882 51.8236 141.934 51.7997C141.973 51.7814 142.013 51.7629 142.052 51.7439C142.104 51.7186 142.155 51.6923 142.207 51.6658C142.245 51.6459 142.283 51.6264 142.32 51.6059C142.336 51.5975 142.351 51.5899 142.366 51.5816C142.391 51.5679 142.415 51.5527 142.439 51.5388C142.503 51.5021 142.567 51.4646 142.63 51.4259C142.668 51.4026 142.706 51.379 142.743 51.3549C142.805 51.315 142.867 51.2739 142.928 51.2318C142.951 51.2161 142.975 51.2018 142.997 51.1858C143.012 51.1753 143.027 51.164 143.041 51.1533C143.078 51.1272 143.114 51.1002 143.15 51.0733C143.196 51.0391 143.242 51.0045 143.287 50.9692C143.323 50.9412 143.359 50.9126 143.394 50.8839C143.418 50.8646 143.442 50.8464 143.465 50.8267C143.477 50.8168 143.488 50.8057 143.5 50.7958C143.617 50.6968 143.732 50.5945 143.843 50.4879C143.849 50.4831 143.854 50.4786 143.859 50.4736C143.872 50.4612 143.884 50.4476 143.897 50.4349C143.987 50.3466 144.076 50.2558 144.162 50.1627C144.176 50.1482 144.19 50.135 144.203 50.1205C144.211 50.1121 144.218 50.1032 144.225 50.0949C144.318 49.9928 144.408 49.888 144.496 49.7806C144.501 49.7744 144.506 49.7687 144.511 49.7626C144.524 49.7465 144.536 49.7294 144.549 49.7132C144.618 49.6261 144.685 49.5377 144.751 49.4474C144.763 49.4301 144.777 49.4137 144.79 49.3963C144.799 49.3835 144.807 49.37 144.816 49.3571C144.894 49.2465 144.971 49.1346 145.043 49.0198C145.044 49.0191 145.044 49.0183 145.045 49.0176C145.047 49.0137 145.049 49.0099 145.052 49.006C145.122 48.8944 145.189 48.7803 145.253 48.6649C145.262 48.6499 145.272 48.6354 145.28 48.6201C145.29 48.6026 145.298 48.5841 145.308 48.5664C145.366 48.4592 145.422 48.3508 145.475 48.2406C145.482 48.2262 145.491 48.2123 145.497 48.1979C145.499 48.1938 145.501 48.1893 145.503 48.1851C145.566 48.0536 145.624 47.9197 145.679 47.7843C145.685 47.7698 145.692 47.7559 145.698 47.7414C145.713 47.7033 145.727 47.6647 145.742 47.6263C145.754 47.5941 145.767 47.5621 145.779 47.5298C145.807 47.4519 145.835 47.3736 145.861 47.2948C145.866 47.2775 145.873 47.2604 145.878 47.243C145.879 47.24 145.881 47.237 145.882 47.234C145.913 47.136 145.943 47.0373 145.971 46.9381C145.976 46.9201 145.98 46.9019 145.985 46.8839C146.006 46.8046 146.027 46.725 146.046 46.6449C146.047 46.6403 146.048 46.6357 146.049 46.6311C146.077 46.513 146.102 46.394 146.124 46.2744C146.129 46.2455 146.133 46.2162 146.138 46.1873C146.154 46.096 146.168 46.0045 146.181 45.9124C146.182 45.8987 146.185 45.8854 146.187 45.8717C146.19 45.8479 146.191 45.8236 146.194 45.7996C146.206 45.697 146.216 45.5942 146.224 45.4909C146.227 45.4515 146.23 45.4122 146.232 45.3727C146.24 45.2365 146.246 45.1 146.246 44.9628C146.246 44.8341 146.242 44.7072 146.235 44.5813C146.234 44.5486 146.232 44.516 146.229 44.4836C146.222 44.3688 146.212 44.2549 146.199 44.1427C146.197 44.1319 146.197 44.1208 146.195 44.1099C146.18 43.9884 146.162 43.869 146.14 43.7508C146.135 43.7205 146.129 43.6906 146.123 43.6604C146.103 43.5577 146.081 43.4563 146.057 43.3562C146.052 43.3394 146.049 43.3221 146.045 43.3055C146.016 43.192 145.983 43.0806 145.948 42.9707C145.94 42.9434 145.931 42.9164 145.922 42.8893C145.909 42.8514 145.897 42.8127 145.884 42.7752C145.871 42.7386 145.856 42.7035 145.842 42.6672C145.822 42.6135 145.801 42.5599 145.779 42.507C145.754 42.444 145.726 42.382 145.698 42.3203C145.675 42.269 145.652 42.2177 145.627 42.1674C145.618 42.1479 145.609 42.1275 145.6 42.1081C145.569 42.0457 145.535 41.9851 145.502 41.9245C145.493 41.9086 145.485 41.892 145.476 41.8762C145.428 41.7913 145.379 41.7077 145.327 41.6261C145.321 41.6177 145.315 41.61 145.31 41.6017C145.231 41.4797 145.149 41.3615 145.062 41.2474C145.059 41.243 145.056 41.2381 145.052 41.2337C145.035 41.2112 145.016 41.1911 144.998 41.169C144.935 41.0891 144.87 41.0107 144.803 40.9351C144.792 40.9231 144.783 40.9096 144.772 40.8976C144.749 40.8724 144.724 40.8497 144.7 40.8248C144.645 40.7668 144.59 40.7097 144.532 40.6546C144.515 40.6379 144.499 40.6197 144.482 40.6033C144.46 40.5829 144.437 40.5649 144.415 40.545C144.36 40.4958 144.305 40.448 144.249 40.4015C144.226 40.3825 144.205 40.3617 144.182 40.3431C144.162 40.3276 144.141 40.3143 144.122 40.299C144.065 40.2551 144.007 40.2128 143.949 40.1713C143.921 40.1515 143.894 40.1295 143.866 40.1104C143.85 40.0994 143.832 40.09 143.816 40.0791C143.754 40.038 143.69 39.9995 143.626 39.9612C143.594 39.9419 143.564 39.9205 143.531 39.902C143.504 39.8867 143.477 39.8718 143.45 39.8572L142.468 39.3228C142.528 39.3554 142.585 39.3919 142.644 39.4268C142.708 39.465 142.771 39.5036 142.833 39.5447C142.878 39.5744 142.922 39.6058 142.966 39.6369C143.025 39.6784 143.083 39.7207 143.14 39.7646C143.183 39.798 143.225 39.8323 143.267 39.8671C143.323 39.9136 143.378 39.9614 143.432 40.0106C143.472 40.0465 143.512 40.0828 143.55 40.1202C143.607 40.1754 143.663 40.2324 143.718 40.2903C143.752 40.3269 143.787 40.3631 143.821 40.4007C143.888 40.4762 143.953 40.5546 144.016 40.6343C144.037 40.6609 144.059 40.686 144.08 40.7131C144.167 40.827 144.249 40.9452 144.327 41.0672C144.385 41.1568 144.441 41.248 144.494 41.3417C144.503 41.3575 144.511 41.374 144.519 41.3898C144.563 41.4694 144.605 41.5506 144.645 41.633C144.67 41.6832 144.693 41.7343 144.716 41.7854C144.744 41.8472 144.771 41.9094 144.797 41.9726C144.819 42.0253 144.839 42.0789 144.86 42.1327C144.887 42.2059 144.914 42.2795 144.939 42.3545C144.948 42.3818 144.958 42.4089 144.966 42.4363C145.001 42.5462 145.033 42.6576 145.062 42.7709C145.067 42.7877 145.07 42.8048 145.074 42.8218C145.099 42.9218 145.121 43.0232 145.141 43.1257C145.147 43.1559 145.152 43.1861 145.158 43.2164C145.179 43.3346 145.198 43.454 145.213 43.5754C145.214 43.5862 145.215 43.5972 145.216 43.608C145.23 43.7202 145.24 43.8341 145.247 43.9489C145.249 43.9814 145.251 44.0138 145.253 44.0464C145.26 44.1724 145.264 44.2993 145.264 44.428C145.264 44.5652 145.258 44.7018 145.25 44.838C145.248 44.8773 145.245 44.9165 145.242 44.9558C145.234 45.0592 145.224 45.1622 145.212 45.2648C145.207 45.3023 145.203 45.3399 145.198 45.3774C145.186 45.4695 145.171 45.561 145.156 45.6524C145.151 45.6814 145.147 45.7105 145.142 45.7394C145.119 45.8591 145.095 45.9782 145.067 46.0964C145.047 46.1809 145.025 46.2648 145.002 46.3484C144.997 46.3666 144.993 46.385 144.988 46.4032C144.96 46.5057 144.929 46.6074 144.896 46.7084C144.89 46.7256 144.884 46.7427 144.878 46.7599C144.852 46.8388 144.825 46.9172 144.796 46.9951C144.784 47.0273 144.772 47.0592 144.759 47.0912C144.739 47.1442 144.718 47.1971 144.697 47.2497C144.641 47.385 144.583 47.5189 144.521 47.6505C144.512 47.6691 144.502 47.6874 144.493 47.7059C144.44 47.8159 144.383 47.9244 144.325 48.0317C144.307 48.0646 144.289 48.0977 144.271 48.1304C144.206 48.2458 144.139 48.3598 144.069 48.4716C144.066 48.476 144.064 48.4805 144.061 48.485C143.988 48.5997 143.912 48.7119 143.834 48.8225C143.812 48.8527 143.79 48.8826 143.769 48.9125C143.703 49.0027 143.635 49.0913 143.566 49.1784C143.548 49.2008 143.531 49.2236 143.513 49.2457C143.426 49.3532 143.336 49.4579 143.243 49.5602C143.222 49.5829 143.201 49.605 143.18 49.6274C143.094 49.7207 143.005 49.8116 142.914 49.9001C142.897 49.9176 142.879 49.9356 142.861 49.953C142.75 50.0596 142.635 50.1617 142.518 50.2608C142.483 50.2904 142.447 50.3199 142.412 50.3487C142.376 50.3776 142.341 50.4062 142.305 50.4344C142.26 50.4697 142.214 50.504 142.168 50.5382C142.132 50.5652 142.096 50.5922 142.059 50.6185C142.022 50.6452 141.984 50.671 141.946 50.6968C141.885 50.7388 141.823 50.78 141.761 50.8199C141.724 50.8439 141.686 50.8676 141.648 50.8909C141.585 50.9297 141.521 50.9672 141.457 51.0038C141.417 51.0264 141.378 51.0492 141.338 51.071C141.3 51.0916 141.262 51.1113 141.224 51.1311C141.173 51.1577 141.122 51.1838 141.07 51.2089C141.031 51.228 140.991 51.2466 140.952 51.265C140.9 51.289 140.848 51.3122 140.795 51.3349C140.755 51.3522 140.715 51.3691 140.675 51.3855C140.622 51.407 140.568 51.4277 140.515 51.4478C140.474 51.4631 140.434 51.4782 140.393 51.4927C140.338 51.5121 140.283 51.53 140.227 51.5478C140.187 51.5608 140.147 51.5738 140.107 51.5859C140.049 51.6033 139.99 51.6189 139.932 51.6346C139.894 51.6448 139.855 51.6556 139.817 51.665C139.752 51.6811 139.686 51.6949 139.62 51.7089C139.588 51.7158 139.556 51.7235 139.523 51.7298C139.425 51.7489 139.326 51.7658 139.226 51.7798C138.041 51.9463 136.936 51.7327 136.006 51.2263L136.988 51.7607C137.918 52.2674 139.023 52.481 140.208 52.3145Z" fill="#F3581E"/>
<path d="M150.868 57.0062C150.866 56.9749 150.863 56.944 150.86 56.9128C150.852 56.8315 150.842 56.7514 150.83 56.6723C150.826 56.6442 150.822 56.6157 150.817 56.588C150.799 56.4856 150.778 56.3847 150.753 56.2863C150.749 56.2718 150.745 56.258 150.741 56.2435C150.718 56.1589 150.693 56.0759 150.665 55.9946C150.66 55.9818 150.657 55.9681 150.653 55.9554C150.645 55.9322 150.635 55.9103 150.626 55.8873C150.613 55.8535 150.601 55.8199 150.587 55.7867C150.571 55.7468 150.553 55.7076 150.536 55.6686C150.521 55.6364 150.507 55.6043 150.491 55.5727C150.485 55.5603 150.48 55.5472 150.473 55.535C150.466 55.5211 150.458 55.5086 150.451 55.4948C150.41 55.4171 150.368 55.3414 150.322 55.2678C150.315 55.2559 150.309 55.243 150.302 55.2312C150.298 55.2259 150.294 55.2211 150.291 55.2158C150.241 55.139 150.19 55.0644 150.135 54.9927C150.133 54.9899 150.131 54.9867 150.129 54.9838C150.118 54.9696 150.106 54.9568 150.094 54.9427C150.055 54.8925 150.014 54.8432 149.972 54.7958C149.965 54.7882 149.959 54.7797 149.952 54.7721C149.937 54.7561 149.921 54.7418 149.907 54.7262C149.872 54.6898 149.837 54.6538 149.801 54.6191C149.79 54.6086 149.78 54.597 149.769 54.5868C149.755 54.574 149.741 54.5626 149.727 54.55C149.693 54.5191 149.658 54.4889 149.622 54.4596C149.608 54.4477 149.595 54.4345 149.58 54.4227C149.568 54.4129 149.555 54.4045 149.542 54.395C149.507 54.3673 149.47 54.3407 149.433 54.3144C149.415 54.3019 149.399 54.2881 149.381 54.276C149.371 54.269 149.36 54.2631 149.349 54.2563C149.31 54.2305 149.27 54.2062 149.23 54.1821C149.21 54.17 149.19 54.1564 149.17 54.1447C149.153 54.1351 149.136 54.1258 149.119 54.1164L148.137 53.582C148.175 53.6026 148.211 53.6257 148.248 53.6478C148.288 53.6718 148.328 53.6961 148.367 53.722C148.395 53.7408 148.423 53.7605 148.451 53.7801C148.488 53.8063 148.524 53.8329 148.56 53.8606C148.587 53.8816 148.614 53.9032 148.64 53.9251C148.676 53.9545 148.711 53.9847 148.745 54.0156C148.77 54.0383 148.795 54.0611 148.819 54.0847C148.855 54.1194 148.89 54.1554 148.925 54.1918C148.947 54.2148 148.969 54.2377 148.99 54.2615C149.032 54.3091 149.073 54.3583 149.112 54.4085C149.126 54.4253 149.14 54.4412 149.153 54.4583C149.208 54.5302 149.26 54.6047 149.309 54.6814C149.32 54.6984 149.33 54.7162 149.34 54.7333C149.386 54.8068 149.429 54.8825 149.469 54.9604C149.483 54.9863 149.496 55.0118 149.509 55.0381C149.525 55.0697 149.539 55.102 149.554 55.1342C149.572 55.1732 149.589 55.2122 149.605 55.2522C149.619 55.2854 149.632 55.3191 149.645 55.353C149.658 55.3885 149.671 55.4241 149.683 55.4602C149.711 55.5416 149.737 55.6247 149.759 55.7093C149.763 55.7236 149.768 55.7374 149.771 55.7519C149.797 55.8504 149.818 55.9512 149.836 56.0536C149.84 56.0815 149.844 56.1098 149.848 56.1379C149.861 56.2171 149.871 56.2973 149.878 56.3786C149.881 56.4096 149.884 56.4405 149.887 56.4719C149.895 56.5798 149.9 56.689 149.9 56.8005L149.891 61.3972L128.518 64.4009L129.501 64.9353L150.874 61.9316L150.882 57.3349C150.881 57.2233 150.876 57.1142 150.868 57.0062Z" fill="#F3581E"/>
<path d="M139.225 51.7801C142.553 51.3124 145.257 48.0207 145.264 44.4287C145.27 40.8355 142.577 38.3022 139.25 38.77C135.92 39.2379 133.217 42.5296 133.21 46.1228C133.203 49.7148 135.896 52.248 139.225 51.7801Z" fill="#FBF6A0"/>
<path d="M146.107 53.2331L132.333 55.1688C130.236 55.4636 128.53 57.5386 128.526 59.804L128.518 64.4007L149.89 61.397L149.899 56.8003C149.903 54.5349 148.206 52.9382 146.107 53.2331Z" fill="#FBF6A0"/>
<path d="M96.0041 68.0374C94.9164 68.8435 93.5807 69.2698 92.1415 69.2698H83.5179L78.5851 72.9258H89.1469C90.8965 72.9258 92.528 72.402 93.865 71.411L96.8596 69.1913L96.0041 68.0374Z" fill="url(#paint6_linear_32_321)"/>
<path d="M77.5544 77.7185C77.2759 77.9251 76.9292 78.0341 76.5524 78.0341C75.9348 78.0341 75.2999 77.7418 74.8103 77.232L67.1589 69.2697H58.4665C54.1827 69.2697 50.1694 65.5621 49.5204 61.0051L46.8263 42.0911C46.4282 39.2956 47.3828 36.743 49.38 35.2626L48.9524 34.6857L48.5245 34.1086L45.5299 36.3283C43.1023 38.1275 41.9357 41.1874 42.4093 44.5135L45.1033 63.4274C45.8494 68.6649 50.5007 72.9259 55.4719 72.9259H63.5523L70.7796 80.4468C71.5386 81.2372 72.5512 81.6905 73.5578 81.6905C74.062 81.6905 74.5566 81.5747 74.9892 81.3556C75.1386 81.2796 75.2821 81.191 75.4152 81.0921L78.4099 78.8726L77.9821 78.2956L77.5544 77.7185Z" fill="url(#paint7_linear_32_321)"/>
<path d="M76.5524 79.4706C75.5458 79.4706 74.5334 79.0174 73.7743 78.2273L66.547 70.7064H58.4665C53.4955 70.7064 48.8442 66.4453 48.098 61.2077L45.4041 42.2936C45.026 39.6389 45.7201 37.0663 47.3085 35.2356C48.7867 33.5321 50.8941 32.5938 53.2428 32.5938H86.9177C91.8894 32.5938 96.5412 36.8541 97.2873 42.0909L99.9813 61.0049C100.359 63.6598 99.6651 66.2327 98.0763 68.0638C96.5978 69.7677 94.4902 70.7062 92.1416 70.7062H84.1366L79.1162 78.1319C78.5415 78.9826 77.607 79.4706 76.5524 79.4706Z" fill="url(#paint8_linear_32_321)"/>
<path d="M99.2699 61.1063L96.5759 42.1924C95.8773 37.2874 91.553 33.312 86.9175 33.312H53.2426C48.6071 33.312 45.4165 37.2874 46.1151 42.1924L48.8091 61.1063C49.5077 66.0113 53.831 69.9878 58.4664 69.9878H66.8529L74.2922 77.7295C74.9472 78.4113 75.774 78.7522 76.5522 78.7522C77.3305 78.7522 78.0603 78.4113 78.5209 77.7295L83.7548 69.9878H92.1413C96.7769 69.9879 99.9686 66.0113 99.2699 61.1063Z" fill="url(#paint9_linear_32_321)"/>
<path opacity="0.2" d="M97.5692 54.2572L48.6416 54.8361L46.8259 42.091C46.5027 39.8155 47.0587 37.7153 48.3932 36.1767C49.5942 34.7933 51.3166 34.0305 53.243 34.0305H86.9173C91.2025 34.0305 95.2162 37.7368 95.8656 42.2936L97.5692 54.2572Z" fill="url(#paint10_linear_32_321)"/>
<path d="M71.0215 52.9192C72.2179 52.9192 73.2815 52.554 74.1324 51.9232L75.0308 51.2574C74.1798 51.8882 73.1163 52.2534 71.9199 52.2534C68.5581 52.2534 65.4235 49.3699 64.917 45.8139C64.5906 43.5224 65.4343 41.5107 66.9746 40.3689L66.0762 41.0347C64.5359 42.1764 63.6922 44.1883 64.0186 46.4797C64.5251 50.0358 67.6597 52.9192 71.0215 52.9192Z" fill="#F3581E"/>
<path d="M62.697 63.2609L62.0488 58.7101C61.9845 58.2588 61.9922 57.8245 62.0629 57.419C62.1053 57.1756 62.1704 56.9426 62.2561 56.7222C62.3133 56.5754 62.3797 56.4341 62.4547 56.2993C62.5297 56.1646 62.6131 56.036 62.7048 55.9148C62.8421 55.7327 62.9977 55.5668 63.1692 55.4193C63.2264 55.3702 63.2854 55.323 63.3461 55.2781L62.4476 55.9439C61.4767 56.6636 60.9449 57.9317 61.1506 59.3761L61.7987 63.9268H83.3804L84.2788 63.261H62.697V63.2609Z" fill="#F3581E"/>
<path d="M71.9201 52.2534C75.2819 52.2534 77.5951 49.37 77.0885 45.8139C76.5819 42.2566 73.4473 39.3733 70.0855 39.3733C66.7237 39.3733 64.4105 42.2567 64.9172 45.8139C65.4237 49.37 68.5583 52.2534 71.9201 52.2534Z" fill="#FBF6A0"/>
<path d="M83.6306 58.7103C83.3111 56.4674 81.3347 54.6501 79.2152 54.6501H65.3078C63.1882 54.6501 61.7296 56.4675 62.049 58.7103L62.6972 63.261H84.2788L83.6306 58.7103Z" fill="#FBF6A0"/>
<path d="M106.582 108.873L100.24 101.844L96.8574 100.004L95.9808 101.116L102.241 108.054C102.474 108.312 102.744 108.526 103.044 108.689L106.318 110.47L107.005 109.208C106.849 109.123 106.706 109.011 106.582 108.873Z" fill="url(#paint11_linear_32_321)"/>
<path d="M126.408 60.201C126.321 60.154 126.233 60.1085 126.145 60.0648C126.145 60.0648 126.101 60.0438 126.098 60.0426C126.004 59.9972 125.909 59.9536 125.815 59.9127C125.79 59.9016 125.711 59.8687 125.711 59.8687C125.635 59.837 125.559 59.8065 125.471 59.7731L125.37 59.7356C125.287 59.7055 125.203 59.6772 125.118 59.6497C125.118 59.6497 125.053 59.628 125.032 59.6215C124.922 59.5875 124.811 59.5557 124.702 59.5274L124.676 59.5202C124.657 59.5155 124.639 59.5112 124.614 59.5059C124.525 59.4837 124.437 59.463 124.347 59.4441C124.313 59.4369 124.229 59.4208 124.229 59.4208C124.151 59.4056 124.073 59.3915 123.989 59.3777L123.869 59.3589C123.785 59.3465 123.7 59.3361 123.613 59.3261C123.613 59.3261 123.534 59.3168 123.512 59.3145C123.392 59.3024 123.273 59.293 123.148 59.2861L123.095 59.2841C122.993 59.2795 122.89 59.2762 122.785 59.2751L122.666 59.2757C122.582 59.276 122.497 59.2776 122.413 59.2806C122.369 59.2822 122.324 59.2839 122.28 59.2864C122.194 59.2908 122.107 59.2968 122.021 59.304C122.021 59.304 121.932 59.3111 121.903 59.3138C121.778 59.3259 121.653 59.3401 121.526 59.3578L88.1787 64.0445C88.051 64.0623 87.9139 64.0853 87.7603 64.1145C87.7254 64.1212 87.6395 64.1387 87.6395 64.1387C87.535 64.16 87.4309 64.1834 87.3297 64.2077C87.3297 64.2077 87.2452 64.2277 87.2162 64.235C87.0721 64.2716 86.9399 64.3083 86.815 64.3463L86.7576 64.3647C86.6414 64.4009 86.5262 64.4394 86.4113 64.4801C86.3719 64.4941 86.3324 64.5085 86.2941 64.5229C86.1924 64.5604 86.0915 64.5997 85.9915 64.6407L85.8961 64.6795C85.7779 64.7295 85.6601 64.7812 85.5367 64.8391L85.5179 64.8484C85.4873 64.863 85.3836 64.9149 85.3836 64.9149C85.2959 64.9582 85.2082 65.0017 85.1205 65.0479C85.0813 65.0689 85.0425 65.0903 85.0037 65.1119L84.9673 65.1323C84.8881 65.1759 84.8094 65.2197 84.733 65.2649C84.6791 65.2965 84.6258 65.3291 84.5742 65.3608C84.4997 65.4064 84.4255 65.4528 84.35 65.5015C84.2975 65.5356 84.2452 65.5703 84.1961 65.6036L84.1649 65.624C84.1395 65.6405 84.1142 65.657 84.0887 65.6748C84.0572 65.6965 84.026 65.7192 83.995 65.7416C83.995 65.7416 83.8832 65.8217 83.8608 65.838C83.7481 65.9205 83.6366 66.0047 83.5267 66.0923L83.4833 66.1275C83.3881 66.2041 83.2943 66.2822 83.2017 66.3617C83.2017 66.3617 83.0345 66.507 83.0117 66.5274C82.9933 66.5441 82.9753 66.5615 82.9574 66.5789L82.943 66.5928C82.834 66.6926 82.7267 66.7951 82.6204 66.9007C82.6204 66.9007 82.5403 66.979 82.5179 67.0018C82.3828 67.1394 82.2527 67.2783 82.1318 67.4145L82.1078 67.4407C82.0916 67.4589 82.0759 67.4779 82.0604 67.497L82.0506 67.509C81.9482 67.6267 81.8482 67.7466 81.751 67.8682C81.7146 67.9134 81.6787 67.9593 81.6414 68.0071C81.5471 68.1291 81.455 68.2527 81.3647 68.3794L81.3535 68.3944C81.3385 68.4142 81.3236 68.4339 81.3117 68.451L81.2295 68.5717C81.166 68.6647 81.1035 68.7588 81.0436 68.8525C81.0216 68.8867 80.9995 68.9212 80.9778 68.9559C80.9068 69.069 80.8372 69.1831 80.7662 69.3054L80.7564 69.322C80.6988 69.422 80.6425 69.5228 80.5882 69.6242L80.5542 69.69C80.5339 69.7281 80.5145 69.7663 80.4948 69.8048L80.4779 69.8381C80.4344 69.9229 80.3918 70.0081 80.3515 70.0923C80.3259 70.1451 80.3008 70.1983 80.2771 70.2498C80.237 70.3363 80.1983 70.4232 80.1601 70.5114C80.1601 70.5114 80.1117 70.6232 80.0945 70.6646C80.054 70.762 80.0153 70.8604 79.9775 70.9589L79.9171 71.1155C79.8987 71.1656 79.8816 71.2161 79.8645 71.2669L79.8228 71.3882C79.8047 71.4396 79.7868 71.491 79.7711 71.5404C79.751 71.6022 79.7325 71.6644 79.7142 71.7269L79.6772 71.8503C79.6618 71.9012 79.6464 71.9517 79.6322 72.0031C79.6141 72.0688 79.5976 72.1347 79.5812 72.2008L79.5506 72.3215C79.5378 72.3712 79.525 72.4208 79.5132 72.4715C79.4977 72.5393 79.4839 72.6074 79.4701 72.6756L79.4456 72.7937C79.4348 72.8445 79.424 72.8953 79.4147 72.9455C79.4018 73.0152 79.3907 73.0855 79.3798 73.1557L79.3594 73.2818C79.3512 73.33 79.3434 73.3781 79.3368 73.4255C79.3256 73.5049 79.3167 73.5848 79.3081 73.6648L79.2952 73.7757C79.2897 73.8205 79.2843 73.8651 79.2799 73.9107C79.2709 74.0064 79.265 74.1027 79.259 74.1989L79.2527 74.2897C79.2498 74.3259 79.247 74.3621 79.2452 74.4003C79.2373 74.5652 79.2331 74.7312 79.2328 74.8928L79.1973 93.9991C79.1938 95.9824 79.7451 97.8174 80.7916 99.306C81.0041 99.6084 81.2387 99.8977 81.4894 100.166C81.552 100.233 81.6155 100.299 81.6801 100.363C82.0042 100.687 82.3572 100.982 82.7293 101.24C82.8042 101.292 82.8802 101.343 82.9567 101.392C83.1105 101.491 83.269 101.584 83.4271 101.67L86.7015 103.451L87.0448 102.82L87.388 102.189C85.2039 101.001 83.9029 98.6064 83.9081 95.7829L83.9436 76.6766C83.9439 76.5366 83.9473 76.3931 83.9542 76.2516C83.9552 76.2301 83.9571 76.2087 83.9587 76.1873L83.9668 76.0695C83.9719 75.9884 83.9769 75.9071 83.9844 75.8271C83.9872 75.7972 83.991 75.7675 83.9946 75.7378L84.0102 75.6024C84.0174 75.5368 84.0246 75.4711 84.0336 75.4055C84.0385 75.3704 84.0444 75.3357 84.0503 75.3008L84.073 75.1601C84.0819 75.1031 84.0907 75.0459 84.1014 74.9882C84.1082 74.9514 84.1161 74.915 84.1237 74.8786L84.1529 74.7379C84.1638 74.6838 84.1746 74.6297 84.1872 74.5754C84.1961 74.5371 84.2059 74.4992 84.2157 74.4612L84.2498 74.3258C84.2631 74.2729 84.2761 74.2199 84.2906 74.1672C84.3017 74.1271 84.3139 74.0872 84.3261 74.0475L84.362 73.9271C84.3781 73.8727 84.3942 73.8181 84.4115 73.7642C84.4241 73.7253 84.4376 73.6871 84.451 73.6486L84.4959 73.5187C84.5133 73.4676 84.5308 73.4164 84.5492 73.3664L84.5927 73.2547C84.6256 73.1686 84.6594 73.083 84.6949 72.9975C84.7098 72.9616 84.7252 72.9261 84.7407 72.8905L84.7524 72.8635C84.7855 72.7869 84.8196 72.7104 84.8541 72.6357C84.8756 72.5893 84.8974 72.5429 84.9191 72.4978C84.9553 72.4226 84.9925 72.3479 85.0315 72.2718L85.0401 72.255C85.0591 72.2179 85.0779 72.1809 85.0976 72.1438C85.1543 72.0368 85.2119 71.9306 85.2722 71.8256L85.2778 71.8161C85.3398 71.7092 85.4041 71.6038 85.4685 71.5009L85.5258 71.4107C85.5791 71.3277 85.6338 71.2454 85.6903 71.1628L85.7375 71.0929L85.8081 70.9953C85.8871 70.8847 85.9681 70.7756 86.0509 70.6689C86.0823 70.6284 86.1139 70.588 86.1455 70.5486C86.2313 70.4416 86.3189 70.3365 86.407 70.235L86.4738 70.157C86.5808 70.0364 86.6962 69.913 86.8165 69.7903C86.8329 69.7738 86.9065 69.7018 86.9065 69.7018C86.9984 69.6106 87.0919 69.5214 87.1866 69.4346L87.2169 69.4069C87.2545 69.3725 87.2919 69.3381 87.3318 69.3029L87.4113 69.2338C87.492 69.1645 87.5735 69.0964 87.6607 69.0265L87.6944 68.9989C87.7894 68.9235 87.8859 68.8506 87.9822 68.78L88.0632 68.7222C88.1318 68.6731 88.2012 68.6252 88.2706 68.5784C88.3154 68.5482 88.3603 68.5184 88.4074 68.488C88.47 68.4473 88.5334 68.4077 88.5964 68.3691L88.6282 68.3497C88.6635 68.3282 88.6987 68.3065 88.7328 68.2866C88.7996 68.2474 88.8672 68.2098 88.9363 68.1716L88.9734 68.151C89.0043 68.1338 89.0351 68.1166 89.0676 68.0993C89.142 68.06 89.2172 68.0229 89.2911 67.9864C89.2911 67.9864 89.3864 67.9387 89.4068 67.9291C89.5129 67.8788 89.6201 67.831 89.7303 67.7846L89.8097 67.7524C89.8944 67.7178 89.9797 67.6844 90.0663 67.6526C90.0992 67.6403 90.1322 67.628 90.1656 67.6162C90.2628 67.5819 90.3604 67.5491 90.4566 67.5192L90.5043 67.5039C90.6169 67.4697 90.7304 67.4386 90.8445 67.4095L90.9379 67.3869C91.0251 67.366 91.1127 67.3466 91.1989 67.3289L91.3015 67.3083C91.418 67.2862 91.5347 67.2658 91.6517 67.2493L125.001 62.5618C125.106 62.547 125.211 62.5353 125.316 62.5252L125.414 62.5172C125.486 62.5113 125.558 62.5061 125.629 62.5024C125.666 62.5005 125.702 62.4991 125.739 62.4978C125.808 62.495 125.878 62.494 125.946 62.4936L126.046 62.4932C126.132 62.494 126.217 62.4965 126.306 62.5008L126.347 62.5021C126.446 62.5075 126.545 62.5154 126.64 62.5249L126.727 62.5351C126.797 62.543 126.866 62.5515 126.938 62.5621C126.966 62.566 127.037 62.5775 127.037 62.5775C127.102 62.588 127.166 62.5996 127.228 62.6115L127.325 62.6308C127.398 62.6462 127.47 62.6633 127.543 62.6812L127.605 62.6962C127.698 62.7203 127.79 62.7467 127.88 62.7744L127.953 62.7984C128.021 62.8203 128.089 62.8434 128.158 62.8681L128.246 62.9012C128.309 62.9247 128.37 62.9496 128.442 62.9793L128.516 63.0103C128.593 63.0438 128.669 63.079 128.744 63.1155L128.774 63.1291C128.849 63.1661 128.923 63.2043 128.996 63.2443L129.34 62.6134L129.683 61.9825L126.408 60.201Z" fill="url(#paint12_linear_32_321)"/>
<path d="M107.781 110.837C106.902 110.837 106.098 110.481 105.516 109.835L99.5106 103.181L91.5836 104.295C91.1882 104.35 90.79 104.378 90.4 104.378C88.3259 104.378 86.3881 103.581 84.944 102.134C83.3448 100.532 82.4668 98.2758 82.4714 95.7802L82.5068 76.674C82.5168 71.3845 86.5298 66.5182 91.4524 65.8262L124.801 61.1394C125.196 61.0838 125.594 61.0557 125.984 61.0557C128.058 61.0557 129.996 61.8528 131.44 63.3C133.04 64.9022 133.918 67.1587 133.913 69.6539L133.878 88.76C133.868 94.0496 129.855 98.9159 124.932 99.6079L116.93 100.733L110.82 109.186C110.179 110.074 109.239 110.664 108.242 110.804C108.088 110.826 107.933 110.837 107.781 110.837Z" fill="url(#paint13_linear_32_321)"/>
<path d="M124.901 61.8506L91.5524 66.5374C86.9622 67.1825 83.2343 71.7221 83.2251 76.6753L83.1896 95.7814C83.1804 100.735 86.8934 104.229 91.4836 103.583L99.7884 102.416L106.049 109.354C106.6 109.965 107.37 110.201 108.141 110.093C108.912 109.984 109.684 109.532 110.238 108.765L116.527 100.064L124.832 98.8965C129.421 98.2515 133.15 93.7118 133.159 88.7586L133.195 69.6524C133.204 64.6993 129.49 61.2056 124.901 61.8506Z" fill="url(#paint14_linear_32_321)"/>
<path opacity="0.2" d="M132.476 69.6512L132.455 81.9884L83.9221 88.0836L83.9437 76.676C83.9523 72.0747 87.4101 67.8455 91.6522 67.2479L125 62.5618C125.331 62.5159 125.661 62.4915 125.984 62.4915C127.674 62.4915 129.251 63.1393 130.423 64.3144C131.751 65.6447 132.48 67.5409 132.476 69.6512Z" fill="url(#paint15_linear_32_321)"/>
<path d="M116.629 84.4431C116.591 84.4223 116.552 84.4025 116.513 84.3832C116.499 84.3762 116.484 84.3712 116.469 84.3644C116.406 84.3345 116.342 84.3074 116.276 84.2817C116.25 84.2715 116.225 84.2603 116.198 84.2506C116.107 84.2176 116.014 84.1879 115.918 84.1631C115.916 84.1626 115.915 84.1619 115.913 84.1614C115.842 84.1433 115.771 84.1285 115.699 84.1152C115.683 84.1122 115.667 84.1093 115.65 84.1064C115.576 84.0938 115.5 84.083 115.423 84.0755C115.413 84.0745 115.403 84.0741 115.392 84.0731C115.321 84.0668 115.249 84.0629 115.176 84.0612C115.162 84.0609 115.149 84.0602 115.135 84.06C115.057 84.0591 114.978 84.0612 114.898 84.0656C114.881 84.0666 114.864 84.0679 114.847 84.0691C114.765 84.0749 114.683 84.0826 114.599 84.0943L100.827 86.0298C100.741 86.0419 100.656 86.0581 100.571 86.0761C100.549 86.0807 100.527 86.0855 100.506 86.0906C100.428 86.1085 100.351 86.1284 100.274 86.1511C100.268 86.1531 100.261 86.1546 100.254 86.1567C100.172 86.1817 100.091 86.21 100.011 86.2403C99.99 86.248 99.9696 86.2561 99.9493 86.2641C99.8789 86.292 99.8092 86.3214 99.7404 86.3532C99.7322 86.3569 99.7237 86.3599 99.7155 86.3638C99.7134 86.3648 99.7112 86.3661 99.7091 86.3673C99.6131 86.4125 99.5192 86.4624 99.4265 86.5149C99.4123 86.5231 99.3978 86.5309 99.3835 86.5392C99.2942 86.5914 99.2068 86.647 99.1211 86.7054C99.1136 86.7104 99.1057 86.7148 99.0982 86.7199C99.0886 86.7265 99.0797 86.734 99.0701 86.7408C99.0049 86.7867 98.9404 86.834 98.8773 86.8836C98.8716 86.888 98.8657 86.8923 98.8599 86.8968C98.7922 86.9505 98.7263 87.0068 98.6614 87.0644C98.6539 87.0709 98.6462 87.0769 98.6388 87.0835C98.6286 87.0927 98.619 87.1029 98.6088 87.1121C98.5621 87.1548 98.5163 87.1986 98.4713 87.2433C98.4565 87.2579 98.4416 87.2721 98.4271 87.2869C98.3696 87.3454 98.3136 87.4052 98.259 87.4667C98.2566 87.4695 98.2538 87.4721 98.2512 87.475C98.2429 87.4843 98.2353 87.4945 98.227 87.504C98.183 87.5544 98.1402 87.6059 98.0983 87.6583C98.0826 87.6778 98.0671 87.6975 98.0517 87.7173C98.0112 87.7696 97.9717 87.8228 97.9332 87.8766C97.9254 87.8876 97.917 87.8979 97.9092 87.9088C97.9068 87.9123 97.9048 87.9159 97.9025 87.9192C97.853 87.99 97.8056 88.0624 97.7598 88.1358C97.7485 88.1539 97.7375 88.1724 97.7265 88.1908C97.69 88.2513 97.6546 88.3125 97.6206 88.3746C97.6138 88.3868 97.6064 88.3984 97.5998 88.4106C97.5968 88.4162 97.5943 88.4222 97.5913 88.4278C97.5437 88.5171 97.4991 88.608 97.4568 88.7002C97.4485 88.7183 97.4405 88.7366 97.4324 88.7548C97.3906 88.8492 97.3512 88.9446 97.3153 89.0415C97.3143 89.0444 97.3129 89.0471 97.3119 89.05C97.3007 89.0803 97.2909 89.1112 97.2803 89.142C97.2698 89.1723 97.2589 89.2023 97.249 89.2328C97.2376 89.2679 97.2276 89.3034 97.2169 89.3389C97.2079 89.3694 97.1983 89.3997 97.1898 89.4304C97.1797 89.4668 97.171 89.5035 97.1618 89.5402C97.1542 89.5703 97.146 89.6004 97.1389 89.6307C97.1303 89.6683 97.123 89.7062 97.1152 89.744C97.109 89.7739 97.1023 89.8036 97.0967 89.8337C97.0895 89.8726 97.0838 89.9119 97.0774 89.9512C97.0728 89.9803 97.0674 90.0095 97.0634 90.0388C97.0576 90.0803 97.0533 90.1221 97.0487 90.1638C97.0457 90.1912 97.0418 90.2184 97.0392 90.2459C97.0349 90.2912 97.0323 90.3369 97.0295 90.3823C97.0279 90.4064 97.0254 90.4305 97.0243 90.4548C97.021 90.5246 97.0191 90.5947 97.019 90.665L97.0105 95.2617L97.9928 95.7961L98.0014 91.1994C98.0016 91.1291 98.0033 91.059 98.0067 90.9892C98.0079 90.9649 98.0103 90.941 98.0119 90.9167C98.0148 90.8711 98.0174 90.8256 98.0217 90.7804C98.0243 90.7529 98.0281 90.7256 98.0312 90.6982C98.0358 90.6564 98.0401 90.6146 98.0458 90.5732C98.0498 90.5443 98.0552 90.5159 98.0598 90.4871C98.0661 90.4474 98.072 90.4074 98.0793 90.3679C98.0848 90.3385 98.0914 90.3093 98.0974 90.2799C98.1053 90.2415 98.1126 90.203 98.1214 90.1649C98.1283 90.1349 98.1363 90.1053 98.1438 90.0756C98.1531 90.0385 98.162 90.0013 98.1722 89.9645C98.1806 89.9345 98.1899 89.9049 98.1988 89.8752C98.2096 89.8391 98.2199 89.8028 98.2316 89.767C98.2413 89.737 98.2521 89.7072 98.2624 89.6774C98.2741 89.6436 98.2854 89.6097 98.2978 89.5761C98.3337 89.479 98.3731 89.3836 98.4149 89.2893C98.4229 89.2711 98.431 89.2529 98.4393 89.2348C98.4814 89.1425 98.5261 89.0516 98.5737 88.9624C98.5834 88.9444 98.5933 88.9269 98.6031 88.9091C98.6371 88.847 98.6724 88.7858 98.7089 88.7255C98.72 88.7071 98.7309 88.6886 98.7423 88.6705C98.7881 88.5969 98.8355 88.5245 98.8849 88.4537C98.8948 88.4395 98.9053 88.4257 98.9154 88.4116C98.954 88.3576 98.9935 88.3043 99.0342 88.2519C99.0495 88.232 99.0651 88.2122 99.0809 88.1927C99.1225 88.1405 99.1652 88.0894 99.2089 88.0393C99.2198 88.0266 99.2304 88.0137 99.2415 88.001C99.296 87.9396 99.3521 87.8798 99.4095 87.8213C99.4239 87.8067 99.4388 87.7926 99.4534 87.7781C99.4986 87.7333 99.5446 87.6893 99.5914 87.6465C99.6088 87.6306 99.6262 87.6146 99.6437 87.5991C99.7086 87.5414 99.7746 87.4852 99.8424 87.4313C99.8481 87.4269 99.854 87.4227 99.8596 87.4181C99.9227 87.3687 99.987 87.3213 100.052 87.2754C100.069 87.2635 100.086 87.2517 100.103 87.2401C100.189 87.1816 100.276 87.126 100.366 87.074C100.38 87.0657 100.394 87.0578 100.409 87.0496C100.501 86.997 100.595 86.9473 100.691 86.9021C100.701 86.8971 100.712 86.8927 100.723 86.8879C100.792 86.8563 100.861 86.8268 100.931 86.7991C100.952 86.7909 100.972 86.7828 100.993 86.7751C101.073 86.7449 101.154 86.7165 101.236 86.6916C101.243 86.6895 101.25 86.6879 101.257 86.6857C101.333 86.663 101.41 86.6434 101.487 86.6254C101.509 86.6204 101.531 86.6155 101.553 86.6108C101.638 86.5928 101.723 86.5767 101.809 86.5646L115.581 84.629C115.664 84.6172 115.747 84.6096 115.829 84.6037C115.846 84.6026 115.863 84.6012 115.88 84.6003C115.96 84.5958 116.039 84.5938 116.117 84.5947C116.131 84.5948 116.144 84.5956 116.158 84.5958C116.231 84.5976 116.303 84.6014 116.374 84.6078C116.385 84.6086 116.395 84.6092 116.405 84.6102C116.482 84.6177 116.558 84.6283 116.632 84.6411C116.648 84.6438 116.665 84.6468 116.681 84.6499C116.755 84.6636 116.828 84.6793 116.9 84.6978C116.995 84.7225 117.088 84.7523 117.18 84.7853C117.206 84.7949 117.232 84.8062 117.258 84.8165C117.323 84.8421 117.388 84.8694 117.451 84.8991C117.505 84.9245 117.559 84.9495 117.611 84.978L116.629 84.4431Z" fill="#F3581E"/>
<path d="M104.498 82.088L105.481 82.6224C103.796 81.7061 102.681 79.8313 102.685 77.5167C102.686 77.4052 102.688 77.2942 102.694 77.1834C102.696 77.1459 102.699 77.1086 102.702 77.0712C102.706 76.9983 102.711 76.9251 102.717 76.8526C102.722 76.8076 102.728 76.7631 102.733 76.7183C102.74 76.6535 102.747 76.5886 102.756 76.5241C102.762 76.4769 102.771 76.4302 102.778 76.3833C102.788 76.3218 102.797 76.26 102.809 76.1988C102.818 76.1503 102.829 76.1023 102.838 76.0539C102.851 75.9948 102.862 75.9356 102.876 75.8769C102.887 75.8278 102.9 75.7792 102.912 75.7302C102.927 75.6732 102.94 75.6159 102.956 75.5591C102.97 75.5101 102.985 75.4617 103 75.4129C103.016 75.357 103.032 75.3008 103.05 75.2455C103.066 75.1971 103.083 75.1493 103.1 75.1012C103.119 75.0458 103.137 74.9902 103.158 74.9355C103.168 74.9066 103.18 74.8782 103.191 74.8495C103.217 74.7827 103.243 74.716 103.27 74.6499C103.285 74.6149 103.3 74.5801 103.315 74.5454C103.341 74.4859 103.367 74.4265 103.395 74.3678C103.411 74.332 103.428 74.2964 103.445 74.2609C103.473 74.2026 103.502 74.1447 103.531 74.0871C103.549 74.0533 103.566 74.0197 103.583 73.9862C103.602 73.9521 103.621 73.9184 103.639 73.8845C103.694 73.7858 103.75 73.6884 103.808 73.5925C103.825 73.5636 103.842 73.5344 103.86 73.5059C103.933 73.3891 104.008 73.2741 104.087 73.1617C104.103 73.1391 104.119 73.1171 104.135 73.0947C104.196 73.009 104.259 72.9243 104.324 72.8413C104.348 72.81 104.372 72.7788 104.397 72.7479C104.464 72.6648 104.532 72.5832 104.602 72.503C104.618 72.4835 104.635 72.4632 104.652 72.4438C104.739 72.3463 104.828 72.2513 104.919 72.1587C104.942 72.1352 104.966 72.1127 104.989 72.0896C105.06 72.0186 105.133 71.9491 105.207 71.8813C105.235 71.856 105.262 71.8307 105.29 71.8058C105.393 71.7143 105.498 71.6251 105.606 71.5398C105.615 71.5325 105.624 71.5259 105.633 71.5185C105.733 71.4401 105.835 71.3651 105.939 71.2924C105.977 71.2656 106.015 71.2388 106.054 71.2127C106.089 71.1888 106.125 71.1654 106.16 71.1423C106.21 71.1103 106.26 71.0791 106.31 71.0484C106.345 71.0267 106.381 71.0048 106.417 70.9837C106.469 70.953 106.522 70.9234 106.575 70.8941C106.61 70.875 106.644 70.8556 106.679 70.8372C106.737 70.8063 106.796 70.7771 106.855 70.748C106.886 70.733 106.916 70.7174 106.946 70.7029C107.03 70.6634 107.114 70.6257 107.199 70.5898C107.221 70.5808 107.242 70.5724 107.264 70.5637C107.331 70.5364 107.398 70.5099 107.466 70.4849C107.492 70.4752 107.519 70.4655 107.545 70.4562C107.622 70.4291 107.699 70.4032 107.777 70.3791C107.789 70.3753 107.801 70.371 107.813 70.3673C107.902 70.3401 107.992 70.3156 108.083 70.2924C108.107 70.2861 108.133 70.2804 108.158 70.2743C108.227 70.2577 108.296 70.2422 108.366 70.2279C108.392 70.2225 108.419 70.2169 108.446 70.2117C108.538 70.1942 108.631 70.1781 108.724 70.165C108.808 70.1532 108.892 70.1439 108.975 70.1358C109.001 70.1333 109.027 70.1315 109.053 70.1294C109.111 70.1246 109.169 70.1205 109.226 70.1176C109.255 70.116 109.284 70.1149 109.313 70.1139C109.369 70.1119 109.425 70.1109 109.48 70.1106C109.507 70.1104 109.534 70.11 109.561 70.1103C109.63 70.111 109.698 70.113 109.766 70.1163C109.778 70.1169 109.79 70.1169 109.802 70.1176C109.882 70.1219 109.961 70.1282 110.04 70.1361C110.062 70.1384 110.085 70.1415 110.108 70.1439C110.164 70.1502 110.22 70.1573 110.276 70.1654C110.303 70.1695 110.33 70.1738 110.357 70.1782C110.409 70.1867 110.461 70.196 110.513 70.2061C110.539 70.2111 110.565 70.2162 110.591 70.2215C110.649 70.2338 110.708 70.2475 110.766 70.2618C110.783 70.266 110.8 70.2697 110.817 70.274C110.892 70.2936 110.967 70.315 111.041 70.3378C111.06 70.3439 111.079 70.3505 111.098 70.3568C111.153 70.3746 111.208 70.3931 111.262 70.4127C111.287 70.4216 111.312 70.4308 111.336 70.4401C111.387 70.4592 111.436 70.4792 111.486 70.5C111.509 70.5095 111.532 70.5188 111.554 70.5286C111.617 70.5559 111.679 70.5843 111.74 70.6139C111.748 70.6178 111.756 70.6213 111.764 70.625C111.824 70.6549 111.884 70.6859 111.944 70.7182L110.961 70.1838C110.902 70.1515 110.842 70.1206 110.781 70.0907C110.78 70.0902 110.779 70.0894 110.778 70.0889C110.771 70.0856 110.764 70.0828 110.758 70.0795C110.696 70.0498 110.634 70.0214 110.572 69.9941C110.549 69.9843 110.526 69.975 110.504 69.9656C110.454 69.9449 110.404 69.9248 110.354 69.9057C110.329 69.8965 110.305 69.8872 110.28 69.8784C110.226 69.8587 110.171 69.8402 110.116 69.8224C110.097 69.8162 110.078 69.8095 110.058 69.8036C109.984 69.7807 109.91 69.7593 109.834 69.7398C109.831 69.7389 109.828 69.7379 109.825 69.7372C109.811 69.7336 109.797 69.731 109.783 69.7276C109.725 69.7132 109.667 69.6996 109.608 69.6872C109.582 69.6818 109.556 69.6769 109.53 69.6718C109.479 69.6618 109.427 69.6525 109.375 69.644C109.348 69.6395 109.321 69.6352 109.293 69.6312C109.238 69.623 109.182 69.6161 109.125 69.6096C109.103 69.6071 109.08 69.604 109.058 69.6017C108.979 69.594 108.9 69.5875 108.82 69.5832C108.808 69.5825 108.796 69.5825 108.784 69.5819C108.716 69.5788 108.648 69.5766 108.579 69.576C108.552 69.5757 108.525 69.5762 108.498 69.5763C108.443 69.5766 108.387 69.5776 108.332 69.5796C108.302 69.5806 108.273 69.5819 108.244 69.5834C108.186 69.5864 108.129 69.5904 108.072 69.5951C108.045 69.5973 108.019 69.599 107.993 69.6016C107.91 69.6096 107.826 69.619 107.742 69.6308C107.649 69.6438 107.556 69.6599 107.464 69.6774C107.437 69.6825 107.41 69.6881 107.384 69.6937C107.314 69.7079 107.244 69.7234 107.176 69.7399C107.151 69.746 107.125 69.7517 107.101 69.758C107.01 69.781 106.92 69.8057 106.831 69.8329C106.819 69.8366 106.807 69.8408 106.795 69.8445C106.717 69.8687 106.64 69.8945 106.563 69.9218C106.537 69.9311 106.511 69.9408 106.484 69.9505C106.416 69.9757 106.349 70.0021 106.281 70.0295C106.26 70.0383 106.239 70.0465 106.218 70.0554C106.138 70.089 106.059 70.1238 105.98 70.1606C105.975 70.1631 105.97 70.166 105.964 70.1686C105.934 70.183 105.904 70.1986 105.874 70.2134C105.814 70.2426 105.755 70.2719 105.697 70.3029C105.662 70.3213 105.628 70.3407 105.593 70.3597C105.54 70.3891 105.487 70.4187 105.434 70.4496C105.399 70.4706 105.363 70.4924 105.328 70.5141C105.278 70.5448 105.228 70.576 105.178 70.6082C105.143 70.6313 105.107 70.6547 105.072 70.6784C105.049 70.6942 105.025 70.709 105.001 70.7251C104.986 70.7356 104.972 70.7475 104.957 70.7583C104.853 70.831 104.751 70.9058 104.652 70.9841C104.642 70.9915 104.633 70.9984 104.624 71.0057C104.516 71.0909 104.411 71.1802 104.309 71.2716C104.297 71.2819 104.285 71.2913 104.273 71.3016C104.257 71.3163 104.242 71.3322 104.225 71.347C104.151 71.4148 104.078 71.4843 104.007 71.5553C103.984 71.5784 103.96 71.601 103.937 71.6243C103.846 71.7171 103.757 71.8119 103.67 71.9094C103.666 71.9139 103.662 71.918 103.658 71.9225C103.645 71.9374 103.633 71.9535 103.62 71.9686C103.55 72.0488 103.482 72.1302 103.415 72.2134C103.391 72.2444 103.366 72.2756 103.342 72.3071C103.277 72.3899 103.215 72.4743 103.154 72.5599C103.141 72.5771 103.128 72.5935 103.116 72.6109C103.112 72.6163 103.109 72.6219 103.105 72.6274C103.026 72.7397 102.951 72.8547 102.879 72.9713C102.861 73.0001 102.844 73.0294 102.826 73.0582C102.768 73.1542 102.712 73.2514 102.658 73.35C102.647 73.3694 102.635 73.3878 102.625 73.4072C102.617 73.422 102.61 73.4371 102.602 73.4518C102.584 73.4853 102.567 73.5191 102.55 73.5527C102.521 73.6103 102.492 73.6682 102.464 73.7265C102.446 73.762 102.43 73.7976 102.413 73.8334C102.386 73.8923 102.359 73.9516 102.334 74.0111C102.319 74.0457 102.304 74.0803 102.289 74.1152C102.262 74.1815 102.235 74.2483 102.21 74.3154C102.199 74.3439 102.187 74.3723 102.176 74.401C102.174 74.4077 102.171 74.4145 102.169 74.4212C102.151 74.4692 102.135 74.5182 102.119 74.5666C102.102 74.6147 102.085 74.6624 102.069 74.711C102.051 74.7667 102.035 74.8232 102.018 74.8793C102.004 74.9278 101.988 74.9757 101.975 75.0244C101.959 75.0819 101.945 75.1401 101.931 75.198C101.919 75.2461 101.906 75.2938 101.894 75.3421C101.881 75.4017 101.869 75.4619 101.857 75.5219C101.847 75.5692 101.836 75.6163 101.828 75.6638C101.816 75.7256 101.807 75.7881 101.797 75.8502C101.79 75.8966 101.781 75.9427 101.775 75.9892C101.765 76.0547 101.759 76.1207 101.751 76.1865C101.747 76.2303 101.74 76.2738 101.736 76.3178C101.729 76.3915 101.725 76.4656 101.72 76.5396C101.718 76.5761 101.714 76.6123 101.713 76.6488C101.707 76.7595 101.704 76.8707 101.704 76.982C101.699 79.297 102.814 81.1719 104.498 82.088Z" fill="#F3581E"/>
<path d="M115.581 84.6284L101.809 86.564C99.7103 86.8589 98.0061 88.9337 98.0019 91.1992L97.9933 95.7958L119.365 92.7923L119.374 88.1956C119.378 85.93 117.68 84.3334 115.581 84.6284Z" fill="#FBF6A0"/>
<path d="M108.7 83.1755C112.029 82.7077 114.732 79.4161 114.738 75.8228C114.745 72.2309 112.053 69.6975 108.724 70.1653C105.395 70.6331 102.692 73.9247 102.686 77.5167C102.679 81.1099 105.371 83.6434 108.7 83.1755Z" fill="#FBF6A0"/>
</g>
<defs>
<radialGradient id="paint0_radial_32_321" cx="0" cy="0" r="1" gradientUnits="userSpaceOnUse" gradientTransform="translate(107.867 118.327) scale(51.2522 7.18556)">
<stop stop-color="#C6C6C6"/>
<stop offset="0.0451" stop-color="#CDCDCD"/>
<stop offset="0.2264" stop-color="#E3E3E3"/>
<stop offset="0.4242" stop-color="#F3F3F3"/>
<stop offset="0.6492" stop-color="#FCFCFC"/>
<stop offset="0.96" stop-color="white"/>
</radialGradient>
<linearGradient id="paint1_linear_32_321" x1="127.517" y1="75.2672" x2="127.517" y2="70.7795" gradientUnits="userSpaceOnUse">
<stop stop-color="#B71919"/>
<stop offset="1" stop-color="#BA5C5C"/>
</linearGradient>
<linearGradient id="paint2_linear_32_321" x1="153.26" y1="81.7254" x2="153.26" y2="31.0903" gradientUnits="userSpaceOnUse">
<stop stop-color="#B71919"/>
<stop offset="1" stop-color="#BA5C5C"/>
</linearGradient>
<linearGradient id="paint3_linear_32_321" x1="139.699" y1="79.9443" x2="139.699" y2="30.1635" gradientUnits="userSpaceOnUse">
<stop stop-color="#F42D2D"/>
<stop offset="1" stop-color="#F88686"/>
</linearGradient>
<linearGradient id="paint4_linear_32_321" x1="139.699" y1="79.2259" x2="139.699" y2="30.8816" gradientUnits="userSpaceOnUse">
<stop stop-color="#F42121"/>
<stop offset="1" stop-color="#F87A7A"/>
</linearGradient>
<linearGradient id="paint5_linear_32_321" x1="138.892" y1="34.4216" x2="140.213" y2="56.0543" gradientUnits="userSpaceOnUse">
<stop offset="0.1012" stop-color="white"/>
<stop offset="0.3076" stop-color="#B1B1B1"/>
<stop offset="0.5704" stop-color="#525252"/>
<stop offset="0.7547" stop-color="#171717"/>
<stop offset="0.8423"/>
</linearGradient>
<linearGradient id="paint6_linear_32_321" x1="87.7224" y1="72.9259" x2="87.7224" y2="68.0374" gradientUnits="userSpaceOnUse">
<stop stop-color="#B71919"/>
<stop offset="1" stop-color="#BA5C5C"/>
</linearGradient>
<linearGradient id="paint7_linear_32_321" x1="60.3578" y1="81.6903" x2="60.3578" y2="34.1086" gradientUnits="userSpaceOnUse">
<stop stop-color="#B71919"/>
<stop offset="1" stop-color="#BA5C5C"/>
</linearGradient>
<linearGradient id="paint8_linear_32_321" x1="72.6926" y1="79.4706" x2="72.6926" y2="32.5938" gradientUnits="userSpaceOnUse">
<stop stop-color="#F42D2D"/>
<stop offset="1" stop-color="#F88686"/>
</linearGradient>
<linearGradient id="paint9_linear_32_321" x1="72.6925" y1="78.7523" x2="72.6925" y2="33.3121" gradientUnits="userSpaceOnUse">
<stop stop-color="#F42121"/>
<stop offset="1" stop-color="#F87A7A"/>
</linearGradient>
<linearGradient id="paint10_linear_32_321" x1="71.3235" y1="33.3511" x2="72.5946" y2="55.3075" gradientUnits="userSpaceOnUse">
<stop offset="0.1012" stop-color="white"/>
<stop offset="0.3076" stop-color="#B1B1B1"/>
<stop offset="0.5704" stop-color="#525252"/>
<stop offset="0.7547" stop-color="#171717"/>
<stop offset="0.8423"/>
</linearGradient>
<linearGradient id="paint11_linear_32_321" x1="101.493" y1="112.15" x2="101.493" y2="100.916" gradientUnits="userSpaceOnUse">
<stop stop-color="#B71919"/>
<stop offset="1" stop-color="#BA5C5C"/>
</linearGradient>
<linearGradient id="paint12_linear_32_321" x1="104.44" y1="110.544" x2="104.44" y2="63.1257" gradientUnits="userSpaceOnUse">
<stop stop-color="#B71919"/>
<stop offset="1" stop-color="#BA5C5C"/>
</linearGradient>
<linearGradient id="paint13_linear_32_321" x1="108.192" y1="110.837" x2="108.192" y2="61.0556" gradientUnits="userSpaceOnUse">
<stop stop-color="#F42D2D"/>
<stop offset="1" stop-color="#F88686"/>
</linearGradient>
<linearGradient id="paint14_linear_32_321" x1="108.192" y1="110.118" x2="108.192" y2="61.7739" gradientUnits="userSpaceOnUse">
<stop stop-color="#F42121"/>
<stop offset="1" stop-color="#F87A7A"/>
</linearGradient>
<linearGradient id="paint15_linear_32_321" x1="106.351" y1="63.8669" x2="109.321" y2="87.5098" gradientUnits="userSpaceOnUse">
<stop offset="0.1012" stop-color="white"/>
<stop offset="0.3076" stop-color="#B1B1B1"/>
<stop offset="0.5704" stop-color="#525252"/>
<stop offset="0.7547" stop-color="#171717"/>
<stop offset="0.8423"/>
</linearGradient>
<clipPath id="clip0_32_321">
<rect width="210.745" height="141" fill="white" transform="translate(0.127312)"/>
</clipPath>
</defs>
</svg>
