<svg width="16" height="16" viewBox="0 0 16 16" fill="none" xmlns="http://www.w3.org/2000/svg">
<path d="M5.31339 14.6666C6.78615 14.6666 7.98006 13.4727 7.98006 11.9999C7.98006 10.5272 6.78615 9.33325 5.31339 9.33325C3.84064 9.33325 2.64673 10.5272 2.64673 11.9999C2.64673 13.4727 3.84064 14.6666 5.31339 14.6666Z" stroke="white" stroke-width="1.5" stroke-linecap="round" stroke-linejoin="round"/>
<path d="M7.97998 12.0001V2.66675" stroke="white" stroke-width="1.5" stroke-linecap="round" stroke-linejoin="round"/>
<path d="M9.73995 1.40658L12.6866 2.38658C13.3999 2.62658 13.9866 3.43325 13.9866 4.18658V4.96658C13.9866 5.98658 13.1999 6.55325 12.2333 6.23325L9.28661 5.25325C8.57328 5.01325 7.98661 4.20658 7.98661 3.45325V2.66658C7.97995 1.65325 8.77328 1.07992 9.73995 1.40658Z" stroke="white" stroke-width="1.5" stroke-linecap="round" stroke-linejoin="round"/>
</svg>
